<svg xmlns="http://www.w3.org/2000/svg" width="398" height="423" viewBox="0 0 398 423" fill="none">
    <g opacity="0.68" filter="url(#filter0_f_54_75)">
    <path d="M198.89 308.703C198.148 308.703 197.406 308.512 196.739 308.127L116.623 261.872C115.291 261.104 114.471 259.682 114.471 258.145V165.635C114.471 164.099 115.291 162.677 116.623 161.909L196.739 115.653C198.071 114.885 199.71 114.885 201.042 115.653L281.158 161.909C282.49 162.677 283.309 164.099 283.309 165.635V258.145C283.309 259.684 282.49 261.104 281.158 261.872L201.042 308.127C200.375 308.512 199.632 308.703 198.89 308.703ZM123.077 255.663L198.89 299.431L274.704 255.661V168.12L198.89 124.349L123.077 168.12V255.663Z" fill="#B100EA"/>
    <path d="M161.845 262.098C159.937 262.098 158.222 260.826 157.701 258.941L145.213 213.788V246.519C145.213 248.894 143.285 250.822 140.91 250.822C138.535 250.822 136.607 248.894 136.607 246.519V182.093C136.607 179.942 138.197 178.12 140.331 177.829C142.465 177.541 144.483 178.87 145.058 180.947L157.547 226.1V168.886C157.547 166.511 159.474 164.583 161.849 164.583C164.225 164.583 166.152 166.511 166.152 168.886V257.795C166.152 259.948 164.562 261.771 162.428 262.057C162.232 262.085 162.039 262.098 161.845 262.098Z" fill="#B100EA"/>
    <path d="M261.169 183.255C260.41 183.255 259.644 183.055 258.949 182.633L231.63 166.125C229.597 164.897 228.943 162.251 230.172 160.218C231.4 158.18 234.051 157.533 236.079 158.759L263.398 175.267C265.431 176.495 266.085 179.141 264.857 181.175C264.048 182.515 262.626 183.255 261.169 183.255Z" fill="#B100EA"/>
    <path d="M180.089 275.015C177.714 275.015 175.786 273.087 175.786 270.712V153.172C175.786 151.657 176.582 150.255 177.882 149.478L197.201 137.933C198.567 137.118 200.271 137.125 201.633 137.944L225.002 152.066C227.035 153.295 227.689 155.941 226.46 157.976C225.23 160.009 222.584 160.659 220.553 159.432L199.396 146.647L184.392 155.612V270.712C184.392 273.087 182.466 275.015 180.089 275.015Z" fill="#B100EA"/>
    <path d="M217.954 215.827H180.089C177.714 215.827 175.786 213.9 175.786 211.524C175.786 209.149 177.714 207.222 180.089 207.222H217.954C220.329 207.222 222.257 209.149 222.257 211.524C222.257 213.9 220.331 215.827 217.954 215.827Z" fill="#B100EA"/>
    <path d="M246.935 261.022C244.56 261.022 242.633 259.094 242.633 256.719V170.347C242.633 167.971 244.56 166.044 246.935 166.044C249.311 166.044 251.238 167.971 251.238 170.347V256.717C251.238 259.094 249.313 261.022 246.935 261.022Z" fill="#B100EA"/>
    </g>
    <path d="M198.89 308.703C198.148 308.703 197.406 308.512 196.739 308.127L116.623 261.872C115.291 261.104 114.471 259.682 114.471 258.145V165.635C114.471 164.099 115.291 162.677 116.623 161.909L196.739 115.653C198.071 114.885 199.71 114.885 201.042 115.653L281.158 161.909C282.49 162.677 283.309 164.099 283.309 165.635V258.145C283.309 259.684 282.49 261.104 281.158 261.872L201.042 308.127C200.375 308.512 199.632 308.703 198.89 308.703ZM123.077 255.663L198.89 299.431L274.704 255.661V168.12L198.89 124.349L123.077 168.12V255.663Z" fill="#B100EA"/>
    <path d="M161.845 262.098C159.937 262.098 158.222 260.826 157.701 258.941L145.213 213.788V246.519C145.213 248.894 143.285 250.822 140.91 250.822C138.535 250.822 136.607 248.894 136.607 246.519V182.093C136.607 179.942 138.197 178.12 140.331 177.829C142.465 177.541 144.483 178.87 145.058 180.947L157.547 226.1V168.886C157.547 166.511 159.474 164.583 161.849 164.583C164.225 164.583 166.152 166.511 166.152 168.886V257.795C166.152 259.948 164.562 261.771 162.428 262.057C162.232 262.085 162.039 262.098 161.845 262.098Z" fill="#B100EA"/>
    <path d="M261.169 183.255C260.41 183.255 259.644 183.055 258.949 182.633L231.63 166.125C229.597 164.897 228.943 162.251 230.172 160.218C231.4 158.18 234.051 157.533 236.079 158.759L263.398 175.267C265.431 176.495 266.085 179.141 264.857 181.175C264.048 182.515 262.626 183.255 261.169 183.255Z" fill="#B100EA"/>
    <path d="M180.089 275.015C177.714 275.015 175.786 273.087 175.786 270.712V153.172C175.786 151.657 176.582 150.255 177.882 149.478L197.201 137.933C198.567 137.118 200.271 137.125 201.633 137.944L225.002 152.066C227.035 153.295 227.689 155.941 226.46 157.976C225.23 160.009 222.584 160.659 220.553 159.432L199.396 146.647L184.392 155.612V270.712C184.392 273.087 182.466 275.015 180.089 275.015Z" fill="#B100EA"/>
    <path d="M217.954 215.827H180.089C177.714 215.827 175.786 213.9 175.786 211.524C175.786 209.149 177.714 207.222 180.089 207.222H217.954C220.329 207.222 222.257 209.149 222.257 211.524C222.257 213.9 220.331 215.827 217.954 215.827Z" fill="#B100EA"/>
    <path d="M246.935 261.022C244.56 261.022 242.633 259.094 242.633 256.719V170.347C242.633 167.971 244.56 166.044 246.935 166.044C249.311 166.044 251.238 167.971 251.238 170.347V256.717C251.238 259.094 249.313 261.022 246.935 261.022Z" fill="#B100EA"/>
    <defs>
    <filter id="filter0_f_54_75" x="-13.2" y="-0.199997" width="424.4" height="424.4" filterUnits="userSpaceOnUse" color-interpolation-filters="sRGB">
    <feFlood flood-opacity="0" result="BackgroundImageFix"/>
    <feBlend mode="normal" in="SourceGraphic" in2="BackgroundImageFix" result="shape"/>
    <feGaussianBlur stdDeviation="57.1" result="effect1_foregroundBlur_54_75"/>
    </filter>
    </defs>
    </svg>