<svg xmlns="http://www.w3.org/2000/svg" width="200" height="200" viewBox="0 0 200 200" fill="none">
    <rect width="200" height="200" fill="#495163"/>
    <path d="M84.9136 32.2171C86.8655 30.5873 89.3591 29.5226 92.1383 29.1324C95.2267 28.6987 100.675 29.3602 104.905 30.6826C105.953 31.0104 110.456 32.6016 114.911 34.2185C125.987 38.2392 127.951 38.7139 133.706 38.7602C135.393 38.7739 136.976 38.8422 137.224 38.9121L137.674 39.0391L137.244 41.5405C136.727 44.5504 136.054 46.4719 134.884 48.2753C133.673 50.1414 133.618 50.9494 134.545 53.3318C135.878 56.7603 136.32 59.5397 136.509 65.6895C136.636 69.7992 136.402 74.7245 135.806 80.5087C135.202 86.3749 135.251 86.8834 136.555 88.2991C137.487 89.3099 137.626 90.2352 137.343 93.5312C136.713 100.842 134.254 108.653 131.892 110.849C130.801 111.863 130.016 113.495 128.516 117.865C127.168 121.794 125.924 125.157 124.941 127.526C123.737 130.431 123.479 131.777 123.477 135.154C123.476 138.642 123.775 142.341 124.173 143.748C124.506 144.923 125.079 145.466 127.019 146.443C129.98 147.934 130.172 148.247 130.517 152.135C130.661 153.749 130.916 155.455 131.085 155.927C132.123 158.827 134.668 160.981 140.642 164.017C148.692 168.107 154.453 169.67 166.57 171.05C171.616 171.624 173.864 172.044 176.407 172.885C182.328 174.843 186.742 178.4 188.904 182.955C189.309 183.811 190.268 186.328 191.034 188.551C193.914 196.908 194.09 197.36 194.972 198.688L195.845 200H99.9225H4L5.04504 198.316C5.73834 197.199 8.72377 188.931 9.01817 187.877C9.01817 187.877 10.3174 184.121 11.866 181.778C14.0927 178.409 17.0129 175.832 20.6355 174.039C24.3579 172.198 28.9762 171.101 38.9219 169.697C45.8141 168.724 48.2576 168.271 50.9991 167.456C56.3276 165.873 64.1823 161.929 66.5989 159.622C67.0047 159.235 67.4925 158.615 67.683 158.244C68.3422 156.963 69.033 154.38 69.3178 152.132C69.8356 148.044 69.9761 147.849 73.8534 145.833L76.4442 144.486V139.916C76.4442 137.403 76.4984 135.346 76.565 135.346C76.6314 135.346 76.7936 135.476 76.9256 135.635C77.3659 136.166 82.192 139.713 84.141 140.939C86.5382 142.447 89.6864 143.96 92.2995 144.861C93.4 145.241 94.324 145.528 94.3529 145.499C94.3817 145.47 93.3515 144.904 92.0634 144.241C87.9308 142.113 84.1822 139.126 80.974 135.406C76.8075 130.575 73.2975 124.386 71.9913 119.568C71.8047 118.88 71.5999 118.274 71.5359 118.221C71.472 118.168 71.1722 117.432 70.8695 116.585C70.0248 114.222 68.6393 111.516 67.7738 110.539C66.2754 108.848 65.3968 106.868 64.3237 102.762C63.3064 98.8694 62.8611 96.0947 62.7416 92.9007C62.6009 89.1448 62.7277 88.2943 63.5425 87.5259C64.3452 86.7687 64.6102 86.2642 64.6102 85.4926C64.6102 85.1522 64.138 81.9209 63.5611 78.3122C62.1257 69.3345 62.0121 68.2683 62.0229 63.8615C62.0308 60.6667 62.1045 59.6632 62.4576 57.9536C63.7913 51.4943 67.2533 45.7669 73.8109 39.1711C76.8207 36.1437 78.1354 35.2285 80.5395 34.4869C82.2776 33.9506 83.756 33.1835 84.9136 32.2171Z" fill="#1B1F28"/>
    </svg>